<?xml version="1.0" encoding="UTF-8" standalone="no"?>
<svg
   xmlns:dc="http://purl.org/dc/elements/1.1/"
   xmlns:cc="http://creativecommons.org/ns#"
   xmlns:rdf="http://www.w3.org/1999/02/22-rdf-syntax-ns#"
   xmlns:svg="http://www.w3.org/2000/svg"
   xmlns="http://www.w3.org/2000/svg"
   xmlns:sodipodi="http://sodipodi.sourceforge.net/DTD/sodipodi-0.dtd"
   xmlns:inkscape="http://www.inkscape.org/namespaces/inkscape"
   viewBox="0 0 85.401192 105.95681"
   version="1.1"
   id="svg10"
   sodipodi:docname="flamengo-logo-2019.svg"
   width="85.401192"
   height="105.95681"
   inkscape:version="0.92.2 (5c3e80d, 2017-08-06)">
  <metadata
     id="metadata16">
    <rdf:RDF>
      <cc:Work
         rdf:about="">
        <dc:format>image/svg+xml</dc:format>
        <dc:type
           rdf:resource="http://purl.org/dc/dcmitype/StillImage" />
        <dc:title></dc:title>
      </cc:Work>
    </rdf:RDF>
  </metadata>
  <defs
     id="defs14" />
  <sodipodi:namedview
     pagecolor="#ffffff"
     bordercolor="#666666"
     borderopacity="1"
     objecttolerance="10"
     gridtolerance="10"
     guidetolerance="10"
     inkscape:pageopacity="0"
     inkscape:pageshadow="2"
     inkscape:window-width="1600"
     inkscape:window-height="837"
     id="namedview12"
     showgrid="false"
     fit-margin-top="0"
     fit-margin-left="0"
     fit-margin-right="0"
     fit-margin-bottom="0"
     inkscape:zoom="3.776"
     inkscape:cx="50.276142"
     inkscape:cy="42.410346"
     inkscape:window-x="-8"
     inkscape:window-y="-8"
     inkscape:window-maximized="1"
     inkscape:current-layer="svg10" />
  <style
     type="text/css"
     id="style2">  
	.st0{fill-rule:evenodd;clip-rule:evenodd;fill:#070308;}
	.st1{fill-rule:evenodd;clip-rule:evenodd;fill:#9F3025;}
	.st2{fill-rule:evenodd;clip-rule:evenodd;fill:#FFFFFF;}
</style>
  <path
     class="st0"
     d="M 42.7006,105.95681 C 55.39422,100.5954 66.2442,91.885752 73.8519,80.357652 81.16292,69.295762 85.40119,56.157112 85.40119,42.658212 V 0 H 42.7006 0 v 42.658212 c 0,13.4989 4.23828,26.63755 11.5493,37.69944 7.6077,11.5281 18.45767,20.237748 31.1513,25.599158 z"
     id="path4-9"
     inkscape:connector-curvature="0"
     style="clip-rule:evenodd;fill:#070308;fill-rule:evenodd;stroke-width:0.21191363"
     inkscape:export-filename="G:\Users\suitedoalex\sites\flamengo-logo-escudo-novo-7.png"
     inkscape:export-xdpi="56.205303"
     inkscape:export-ydpi="56.205303" />
  <path
     class="st1"
     d="M 39.64904,3.136322 H 3.28467 V 35.47434 H 39.64904 Z M 82.11653,12.84197 H 42.7006 V 25.68393 H 82.11653 Z M 13.37175,77.072992 h 58.65769 c 2.52177,-4.04755 4.61972,-8.3494 6.23026,-12.84197 H 7.14149 c 1.61055,4.49257 3.70849,8.79442 6.23026,12.84197 z M 3.28467,38.54709 v 4.005172 c 0,2.96679 0.21191,5.93358 0.63574,8.83679 h 77.56038 c 0.42383,-2.9244 0.63574,-5.87 0.63574,-8.83679 V 38.54709 Z M 42.7006,102.43905 C 49.73613,99.429872 56.13592,95.128032 61.62448,89.936142 H 23.77671 c 5.48857,5.21308 11.88836,9.49373 18.92389,12.502908 z"
     id="path6-7"
     style="clip-rule:evenodd;fill:#c3281e;fill-opacity:1;fill-rule:evenodd;stroke-width:0.21191363"
     inkscape:connector-curvature="0"
     inkscape:export-filename="G:\Users\suitedoalex\sites\flamengo-logo-escudo-novo-7.png"
     inkscape:export-xdpi="56.205303"
     inkscape:export-ydpi="56.205303" />
  <path
     class="st2"
     d="m 21.89068,28.29047 v -2.22509 c -1.41982,0.65693 -3.15751,0.86884 -4.70448,0.67812 -4.32304,-0.55098 -7.09911,-4.02636 -7.09911,-8.32821 0,-3.94159 2.54297,-7.65008 6.54813,-7.65008 1.61055,0 3.13633,0.76289 3.81445,2.62773 0.63574,-1.39863 0.72051,-4.4078 0.19072,-5.72167 -0.36025,-0.0424 -0.7417,-0.0424 -1.12314,-0.0424 -1.56816,0 -3.09394,0.29668 -4.36542,0.7417 -2.96679,1.01718 -5.48856,3.28466 -6.99315,6.03954 -1.01719,1.86484 -1.4622,3.53895 -2.62773,3.53895 1.33506,5.82763 5.53095,10.68045 11.76121,11.01951 1.52577,0.0424 3.05155,-0.16953 4.59852,-0.67812 z M 19.51725,6.971959 c 4.93759,0 8.30701,2.712491 8.30701,7.671271 0,1.84365 -0.57216,3.66611 -1.84364,4.97997 h 2.33105 C 30.9182,16.97428 30.45199,13.66843 32.21088,13.66843 29.77387,7.58651 26.38325,4.640909 18.79674,4.831631 16.50808,4.852821 15.40613,4.874011 13.52009,4.19589 l 1.37744,3.58134 c 1.29268,-0.46621 2.9456,-0.805271 4.61972,-0.805271 z M 17.88551,29.58314 c -0.95361,0 -1.92841,-0.10595 -2.86083,-0.33906 0,2.05556 -0.46621,2.98798 -1.33506,3.62372 1.08076,1.12315 3.87802,1.61055 6.18788,0.95362 C 18.37292,32.889 17.88551,31.4056 17.88551,29.58314 Z m 15.53327,-10.5321 c -0.50859,0.63574 -1.2079,1.18671 -2.90321,1.18671 h -5.12831 v -7.8408 h 1.54697 C 26.72231,11.54929 26.34087,10.7864 25.89585,10.10828 h -0.67812 c -1.31387,0 -2.54297,-0.19072 -3.83564,-0.67812 l 1.12314,2.9456 v 7.81961 c 1.37744,0.44502 2.30986,1.25029 3.30585,2.28867 h 3.11513 c 1.75889,0 2.4582,1.18671 2.30986,2.81845 3.11513,-1.63174 2.58535,-5.23427 2.18271,-6.25145 z m -8.03152,10.57449 v -1.86484 c -0.78408,-1.20791 -1.73769,-2.58535 -2.86084,-3.49658 v 5.02235 c 0,1.82246 -0.4874,2.9456 -1.35624,3.53896 1.08076,1.12314 3.87802,1.61054 6.18787,0.95361 -1.50458,-0.89003 -1.97079,-2.60654 -1.97079,-4.1535 z M 36.47034,8.56131 c -0.52978,0.95361 -1.50459,1.54697 -3.28466,1.54697 h -2.09795 c 0.44502,0.69932 0.84766,1.4622 1.25029,2.28867 1.67412,0 2.16152,1.78007 1.92842,2.81845 3.19989,-1.63174 2.60654,-5.6369 2.2039,-6.65409 z m -6.59051,20.04703 c -1.50459,-1.65293 -2.96679,-4.51376 -5.63691,-6.71766 -1.84365,-1.52578 -4.32303,-1.84365 -6.3786,-1.84365 v -8.47655 c -0.9748,-0.27548 -1.90722,-0.21191 -2.86083,0.0424 v 13.92273 c 0.91123,0.38144 1.88603,0.61455 2.86083,0.65693 v -3.79325 c 3.39062,0 4.93759,0.89004 6.65409,3.09394 1.82246,2.33105 4.1747,6.88719 6.39979,8.43416 1.31387,-0.25429 4.19589,-2.30986 4.429,-4.95878 -1.75889,1.27149 -3.81445,1.44102 -5.46737,-0.36025 z"
     id="path8-1"
     inkscape:connector-curvature="0"
     style="clip-rule:evenodd;fill:#ffffff;fill-rule:evenodd;stroke-width:0.21191363"
     inkscape:export-filename="G:\Users\suitedoalex\sites\flamengo-logo-escudo-novo-7.png"
     inkscape:export-xdpi="56.205303"
     inkscape:export-ydpi="56.205303" />
</svg>
